<svg xmlns="http://www.w3.org/2000/svg" id="canvas" viewBox="280.841 358.624 1289.435 154.493"><path d="M 332.76,381.70 C 331.85 382.62, 331.18 383.86, 329.56 386.95 C 327.95 390.05, 327.09 392.23, 324.69 397.18 C 322.30 402.12, 320.54 405.55, 317.60 411.68 C 314.65 417.81, 313.09 421.25, 309.98 427.82 C 306.87 434.39, 305.06 437.94, 302.06 444.53 C 299.06 451.12, 297.52 454.55, 294.96 460.76 C 292.39 466.97, 291.14 470.15, 289.25 475.59 C 287.35 481.04, 286.58 483.55, 285.50 488.00 C 284.42 492.45, 284.01 494.43, 283.87 497.86 C 283.73 501.28, 284.10 502.95, 284.80 505.12 C 285.50 507.30, 286.35 507.75, 287.36 508.74 C 288.37 509.73, 288.97 509.90, 289.84 510.07 C 290.71 510.24, 291.36 509.92, 291.71 509.59 C 292.06 509.27, 291.86 508.70, 291.60 508.43 C 291.34 508.16, 290.90 508.51, 290.40 508.25 C 289.91 508.00, 289.70 507.95, 289.13 507.16 C 288.55 506.37, 288.03 506.16, 287.53 504.31 C 287.02 502.46, 286.60 501.09, 286.61 497.92 C 286.62 494.75, 286.72 492.81, 287.59 488.46 C 288.46 484.11, 289.18 481.59, 290.96 476.17 C 292.74 470.76, 293.96 467.57, 296.47 461.38 C 298.97 455.18, 300.49 451.75, 303.49 445.18 C 306.49 438.61, 308.31 435.07, 311.47 428.54 C 314.64 422.01, 316.27 418.59, 319.33 412.53 C 322.39 406.47, 324.25 403.11, 326.79 398.23 C 329.32 393.35, 330.53 391.33, 332.00 388.15 C 333.47 384.98, 333.97 383.64, 334.12 382.35 C 334.27 381.06, 333.67 380.78, 332.76 381.70" style="stroke: black; fill: black;"/><path d="M 410.15,361.75 C 409.10 362.10, 408.16 362.63, 405.91 364.57 C 403.66 366.50, 402.44 368.12, 398.91 371.43 C 395.38 374.73, 393.12 376.73, 388.26 381.08 C 383.41 385.43, 380.33 388.22, 374.62 393.17 C 368.91 398.11, 365.60 400.85, 359.71 405.81 C 353.83 410.76, 350.61 413.32, 345.18 417.94 C 339.74 422.56, 336.93 424.82, 332.54 428.89 C 328.14 432.97, 326.15 434.94, 323.20 438.32 C 320.26 441.70, 318.97 443.03, 317.81 445.80 C 316.64 448.58, 316.58 449.89, 317.37 452.19 C 318.15 454.48, 319.23 455.70, 321.74 457.26 C 324.24 458.81, 326.06 459.06, 329.89 459.95 C 333.73 460.83, 336.05 461.13, 340.93 461.70 C 345.80 462.26, 348.80 462.43, 354.27 462.76 C 359.74 463.09, 362.74 463.06, 368.28 463.33 C 373.81 463.61, 376.72 463.85, 381.95 464.13 C 387.18 464.41, 389.78 464.50, 394.42 464.73 C 399.05 464.96, 401.46 465.13, 405.12 465.28 C 408.78 465.42, 410.33 465.56, 412.73 465.44 C 415.13 465.31, 416.24 465.04, 417.12 464.66 C 418.00 464.28, 417.98 463.92, 417.11 463.55 C 416.24 463.18, 415.16 463.02, 412.77 462.81 C 410.39 462.60, 408.86 462.59, 405.20 462.51 C 401.55 462.43, 399.13 462.52, 394.50 462.42 C 389.87 462.33, 387.28 462.27, 382.06 462.03 C 376.83 461.80, 373.91 461.55, 368.39 461.24 C 362.86 460.94, 359.85 460.94, 354.43 460.52 C 349.00 460.10, 346.03 459.85, 341.27 459.13 C 336.51 458.42, 334.22 457.90, 330.64 456.95 C 327.06 455.99, 325.59 455.47, 323.38 454.36 C 321.17 453.24, 320.20 452.86, 319.57 451.37 C 318.95 449.87, 319.22 449.21, 320.28 446.88 C 321.33 444.54, 322.15 443.03, 324.84 439.69 C 327.54 436.35, 329.47 434.28, 333.74 430.17 C 338.01 426.05, 340.80 423.76, 346.19 419.13 C 351.58 414.49, 354.80 411.92, 360.70 406.98 C 366.61 402.04, 369.93 399.31, 375.70 394.44 C 381.48 389.56, 384.60 386.82, 389.59 382.60 C 394.57 378.38, 396.93 376.49, 400.62 373.34 C 404.31 370.20, 405.95 368.99, 408.05 366.88 C 410.16 364.78, 410.73 363.85, 411.15 362.82 C 411.57 361.79, 411.20 361.40, 410.15 361.75" style="stroke: black; fill: black;"/><path d="M 446.03,471.23 C 446.83 471.50, 447.62 471.57, 449.59 471.14 C 451.56 470.71, 452.87 470.33, 455.86 469.08 C 458.86 467.84, 460.82 466.89, 464.57 464.91 C 468.32 462.92, 470.52 461.63, 474.62 459.15 C 478.72 456.68, 481.14 455.17, 485.07 452.51 C 489.00 449.85, 491.01 448.44, 494.25 445.85 C 497.49 443.25, 499.19 442.03, 501.27 439.54 C 503.35 437.04, 504.17 435.67, 504.64 433.36 C 505.11 431.05, 504.89 429.68, 503.62 427.99 C 502.35 426.30, 501.25 425.41, 498.28 424.89 C 495.32 424.38, 493.32 424.51, 488.79 425.41 C 484.26 426.31, 481.40 427.01, 475.65 429.38 C 469.90 431.76, 466.35 433.68, 460.04 437.30 C 453.73 440.92, 450.05 443.20, 444.12 447.49 C 438.18 451.78, 435.05 454.31, 430.34 458.74 C 425.64 463.17, 423.42 465.57, 420.59 469.64 C 417.76 473.70, 416.81 475.56, 416.19 479.07 C 415.57 482.58, 415.94 484.44, 417.48 487.18 C 419.02 489.93, 420.53 491.13, 423.89 492.80 C 427.25 494.48, 429.60 494.97, 434.26 495.55 C 438.93 496.13, 441.74 496.02, 447.23 495.70 C 452.72 495.38, 455.78 494.92, 461.70 493.94 C 467.62 492.96, 471.33 492.08, 476.82 490.79 C 482.32 489.50, 485.15 488.72, 489.18 487.49 C 493.20 486.27, 495.47 485.50, 496.95 484.69 C 498.43 483.87, 498.24 483.28, 496.57 483.43 C 494.90 483.58, 492.65 484.39, 488.60 485.45 C 484.55 486.51, 481.78 487.43, 476.33 488.72 C 470.89 490.02, 467.21 490.96, 461.37 491.91 C 455.52 492.86, 452.47 493.25, 447.12 493.47 C 441.77 493.69, 439.00 493.64, 434.61 493.00 C 430.21 492.36, 428.09 491.72, 425.13 490.28 C 422.17 488.85, 421.15 487.98, 419.83 485.82 C 418.50 483.65, 418.04 482.47, 418.52 479.46 C 419.00 476.45, 419.62 474.64, 422.23 470.75 C 424.83 466.86, 426.96 464.38, 431.53 459.99 C 436.10 455.61, 439.21 453.06, 445.08 448.83 C 450.96 444.60, 454.64 442.33, 460.91 438.84 C 467.18 435.34, 470.76 433.50, 476.43 431.35 C 482.10 429.20, 484.98 428.71, 489.25 428.11 C 493.52 427.51, 495.27 428.06, 497.78 428.34 C 500.30 428.61, 500.96 428.63, 501.81 429.49 C 502.66 430.36, 502.62 431.05, 502.04 432.66 C 501.46 434.27, 500.79 435.31, 498.89 437.53 C 496.99 439.76, 495.60 441.21, 492.55 443.78 C 489.51 446.36, 487.51 447.81, 483.66 450.43 C 479.80 453.05, 477.37 454.54, 473.28 456.87 C 469.19 459.21, 466.97 460.39, 463.19 462.10 C 459.41 463.81, 457.31 464.25, 454.37 465.43 C 451.43 466.61, 450.23 467.11, 448.48 467.99 C 446.73 468.87, 446.10 469.18, 445.61 469.83 C 445.12 470.48, 445.24 470.97, 446.03 471.23" style="stroke: black; fill: black;"/><path d="M 556.96,429.66 C 556.29 429.98, 555.87 430.45, 554.93 431.90 C 553.99 433.36, 553.29 434.26, 552.28 436.94 C 551.26 439.61, 550.93 441.61, 549.87 445.27 C 548.80 448.93, 548.05 451.25, 546.94 455.24 C 545.83 459.23, 545.09 461.46, 544.33 465.23 C 543.57 469.00, 543.23 470.91, 543.13 474.10 C 543.02 477.28, 542.99 478.69, 543.81 481.16 C 544.62 483.62, 545.43 484.89, 547.20 486.42 C 548.96 487.95, 550.13 488.50, 552.62 488.82 C 555.11 489.15, 556.54 489.01, 559.66 488.03 C 562.78 487.05, 564.59 486.17, 568.23 483.92 C 571.86 481.66, 573.90 480.07, 577.84 476.75 C 581.78 473.43, 583.94 471.35, 587.93 467.32 C 591.91 463.30, 594.12 460.95, 597.75 456.65 C 601.39 452.34, 603.24 449.86, 606.12 445.80 C 609.00 441.74, 610.15 439.66, 612.14 436.34 C 614.13 433.02, 614.95 431.49, 616.06 429.20 C 617.16 426.91, 617.34 426.14, 617.67 424.87 C 618.00 423.61, 617.72 423.33, 617.70 422.87 C 617.68 422.41, 617.62 422.68, 617.57 422.58 C 617.51 422.47, 617.58 422.36, 617.41 422.32 C 617.23 422.28, 617.06 422.07, 616.68 422.39 C 616.29 422.72, 616.16 422.85, 615.48 423.93 C 614.80 425.02, 614.40 425.60, 613.28 427.83 C 612.15 430.05, 611.66 431.71, 609.87 435.05 C 608.07 438.39, 607.04 440.49, 604.30 444.54 C 601.55 448.59, 599.74 451.05, 596.16 455.30 C 592.58 459.55, 590.38 461.88, 586.40 465.80 C 582.43 469.71, 580.23 471.75, 576.29 474.87 C 572.36 477.98, 570.28 479.44, 566.74 481.39 C 563.20 483.33, 561.37 483.77, 558.61 484.61 C 555.84 485.45, 554.81 485.66, 552.92 485.57 C 551.03 485.49, 550.37 485.24, 549.15 484.18 C 547.93 483.11, 547.36 482.24, 546.81 480.24 C 546.26 478.25, 546.30 477.09, 546.40 474.21 C 546.50 471.32, 546.61 469.44, 547.31 465.82 C 548.02 462.20, 548.73 459.99, 549.93 456.11 C 551.12 452.23, 551.97 449.93, 553.28 446.40 C 554.59 442.88, 555.55 441.12, 556.48 438.47 C 557.41 435.83, 557.58 434.81, 557.94 433.17 C 558.30 431.53, 558.48 430.97, 558.29 430.27 C 558.09 429.57, 557.64 429.33, 556.96 429.66" style="stroke: black; fill: black;"/><path d="M 661.99,431.29 C 661.30 431.40, 660.89 431.58, 659.59 432.72 C 658.29 433.87, 657.25 434.57, 655.47 437.01 C 653.69 439.44, 652.74 441.55, 650.68 444.89 C 648.62 448.23, 647.32 450.16, 645.16 453.71 C 643.00 457.25, 641.75 459.33, 639.89 462.61 C 638.03 465.89, 636.99 467.37, 635.86 470.13 C 634.74 472.89, 634.49 474.40, 634.28 476.41 C 634.06 478.42, 634.46 479.43, 634.79 480.20 C 635.12 480.97, 635.51 480.91, 635.92 480.27 C 636.33 479.62, 636.21 478.74, 636.84 476.98 C 637.47 475.23, 637.93 474.07, 639.08 471.49 C 640.22 468.91, 640.82 467.31, 642.56 464.08 C 644.30 460.85, 645.55 458.78, 647.77 455.34 C 649.98 451.89, 651.36 450.00, 653.63 446.85 C 655.89 443.70, 657.38 442.01, 659.07 439.58 C 660.77 437.16, 661.31 436.21, 662.10 434.73 C 662.89 433.25, 663.06 432.86, 663.03 432.17 C 663.01 431.48, 662.67 431.18, 661.99 431.29" style="stroke: black; fill: black;"/><path d="M 677.79,384.08 C 677.96 383.78, 678.46 383.59, 678.26 384.00 C 678.06 384.41, 677.07 385.62, 676.78 386.12 C 676.49 386.63, 676.39 387.08, 676.82 386.52 C 677.26 385.97, 678.72 384.02, 678.95 383.33 C 679.19 382.64, 678.45 382.63, 678.00 383.07 C 677.56 383.51, 676.85 385.05, 676.73 385.54 C 676.61 386.03, 677.19 385.80, 677.40 385.51 C 677.61 385.22, 677.61 384.39, 677.79 384.08" style="stroke: black; fill: black;"/><path d="M 703.76,436.27 C 703.04 436.87, 702.72 437.76, 701.61 439.72 C 700.51 441.68, 699.82 443.02, 698.24 446.08 C 696.66 449.14, 695.81 451.46, 693.72 455.02 C 691.63 458.58, 690.20 460.43, 687.77 463.89 C 685.35 467.36, 683.82 469.31, 681.60 472.35 C 679.38 475.38, 678.05 476.78, 676.69 479.07 C 675.33 481.37, 674.94 482.66, 674.80 483.82 C 674.67 484.99, 675.08 485.28, 676.03 484.91 C 676.97 484.54, 677.87 483.98, 679.54 481.97 C 681.20 479.97, 681.91 478.13, 684.37 474.88 C 686.83 471.63, 688.37 469.45, 691.84 465.73 C 695.31 462.00, 697.49 459.89, 701.72 456.26 C 705.94 452.63, 708.45 450.69, 712.99 447.58 C 717.52 444.47, 720.06 442.89, 724.41 440.71 C 728.77 438.52, 731.08 437.70, 734.75 436.63 C 738.42 435.56, 740.16 435.44, 742.77 435.35 C 745.38 435.25, 746.40 435.18, 747.81 436.14 C 749.22 437.11, 749.51 437.94, 749.82 440.17 C 750.12 442.40, 750.01 443.97, 749.34 447.30 C 748.68 450.63, 747.98 452.78, 746.48 456.80 C 744.99 460.83, 743.70 463.29, 741.85 467.44 C 740.00 471.59, 738.70 473.88, 737.24 477.55 C 735.78 481.22, 735.12 482.93, 734.55 485.80 C 733.97 488.66, 734.13 489.99, 734.36 491.86 C 734.60 493.74, 735.23 494.56, 735.71 495.18 C 736.19 495.79, 736.56 495.62, 736.77 494.95 C 736.99 494.29, 736.56 493.54, 736.78 491.85 C 736.99 490.16, 737.20 489.17, 737.83 486.51 C 738.46 483.86, 738.61 482.16, 739.92 478.57 C 741.23 474.98, 742.50 472.71, 744.36 468.56 C 746.22 464.42, 747.57 461.97, 749.21 457.85 C 750.85 453.73, 751.80 451.62, 752.55 447.96 C 753.31 444.30, 753.65 442.35, 753.00 439.56 C 752.35 436.77, 751.36 435.45, 749.29 434.00 C 747.23 432.56, 745.75 432.29, 742.69 432.34 C 739.63 432.38, 737.86 432.94, 734.00 434.22 C 730.14 435.51, 727.85 436.42, 723.41 438.75 C 718.97 441.08, 716.43 442.69, 711.81 445.86 C 707.19 449.03, 704.67 450.99, 700.32 454.61 C 695.96 458.22, 693.75 460.33, 690.03 463.95 C 686.31 467.57, 684.49 469.57, 681.71 472.69 C 678.93 475.81, 677.53 477.27, 676.13 479.54 C 674.74 481.82, 674.71 483.03, 674.75 484.08 C 674.78 485.13, 675.29 485.38, 676.30 484.79 C 677.30 484.19, 678.21 483.24, 679.76 481.09 C 681.32 478.95, 682.01 477.19, 684.08 474.08 C 686.15 470.97, 687.66 469.03, 690.13 465.55 C 692.59 462.06, 694.13 460.22, 696.41 456.67 C 698.69 453.12, 699.85 450.91, 701.52 447.80 C 703.19 444.69, 704.01 443.32, 704.75 441.11 C 705.48 438.90, 705.41 437.73, 705.21 436.76 C 705.01 435.79, 704.48 435.68, 703.76 436.27" style="stroke: black; fill: black;"/><path d="M 967.07,373.91 C 966.45 373.89, 966.16 373.83, 964.85 374.75 C 963.55 375.66, 962.56 376.15, 960.53 378.50 C 958.50 380.85, 957.60 382.72, 954.70 386.50 C 951.79 390.28, 949.89 392.58, 946.01 397.41 C 942.13 402.24, 939.73 405.10, 935.29 410.65 C 930.85 416.19, 928.21 419.29, 923.82 425.11 C 919.42 430.93, 917.04 434.06, 913.29 439.77 C 909.55 445.47, 907.82 448.55, 905.07 453.64 C 902.33 458.73, 901.08 461.05, 899.58 465.22 C 898.07 469.38, 897.56 471.18, 897.52 474.45 C 897.49 477.72, 897.98 479.19, 899.40 481.56 C 900.83 483.93, 901.88 484.90, 904.66 486.32 C 907.44 487.73, 909.30 488.05, 913.29 488.62 C 917.29 489.19, 919.70 489.23, 924.62 489.16 C 929.53 489.10, 932.38 488.78, 937.87 488.31 C 943.35 487.84, 946.44 487.48, 952.03 486.80 C 957.61 486.11, 960.57 485.67, 965.78 484.88 C 970.98 484.09, 973.61 483.58, 978.06 482.85 C 982.52 482.11, 984.59 481.92, 988.04 481.20 C 991.50 480.48, 993.00 480.15, 995.34 479.26 C 997.67 478.36, 998.49 477.64, 999.71 476.73 C 1000.92 475.82, 1001.17 475.26, 1001.40 474.70 C 1001.62 474.14, 1001.38 473.91, 1000.83 473.92 C 1000.27 473.94, 999.93 474.28, 998.62 474.76 C 997.31 475.23, 996.51 475.54, 994.27 476.28 C 992.03 477.03, 990.74 477.64, 987.41 478.49 C 984.09 479.34, 982.04 479.69, 977.65 480.55 C 973.26 481.41, 970.62 481.95, 965.45 482.79 C 960.27 483.62, 957.33 484.07, 951.77 484.73 C 946.22 485.39, 943.12 485.72, 937.69 486.10 C 932.26 486.48, 929.41 486.71, 924.62 486.63 C 919.84 486.55, 917.46 486.35, 913.76 485.70 C 910.05 485.06, 908.49 484.52, 906.09 483.39 C 903.68 482.27, 902.91 481.89, 901.73 480.10 C 900.56 478.31, 900.21 477.29, 900.19 474.45 C 900.17 471.62, 900.32 469.91, 901.62 465.92 C 902.92 461.93, 904.07 459.54, 906.68 454.49 C 909.29 449.44, 910.99 446.34, 914.67 440.66 C 918.35 434.98, 920.71 431.87, 925.10 426.09 C 929.50 420.30, 932.14 417.22, 936.65 411.75 C 941.15 406.28, 943.58 403.43, 947.61 398.74 C 951.65 394.05, 953.65 391.80, 956.83 388.28 C 960.02 384.76, 961.52 383.43, 963.55 381.15 C 965.58 378.87, 966.12 378.15, 966.99 376.88 C 967.87 375.62, 967.90 375.42, 967.92 374.83 C 967.93 374.23, 967.68 373.92, 967.07 373.91" style="stroke: black; fill: black;"/><path d="M 938.33,418.65 C 938.87 418.77, 938.67 419.01, 940.38 418.44 C 942.09 417.88, 943.90 417.10, 946.87 415.83 C 949.83 414.56, 952.08 413.61, 955.19 412.09 C 958.30 410.58, 961.10 409.38, 962.41 408.25 C 963.72 407.12, 963.48 406.44, 961.74 406.45 C 960.00 406.46, 957.07 407.29, 953.71 408.30 C 950.35 409.32, 947.93 410.09, 944.92 411.52 C 941.91 412.95, 940.10 414.19, 938.65 415.46 C 937.19 416.72, 937.71 417.22, 937.65 417.86 C 937.59 418.50, 937.78 418.53, 938.33 418.65" style="stroke: black; fill: black;"/><path d="M 949.92,396.23 C 950.94 396.46, 952.08 396.52, 954.62 395.93 C 957.15 395.35, 958.82 394.45, 962.57 393.30 C 966.32 392.15, 969.16 391.31, 973.37 390.18 C 977.58 389.05, 979.63 388.37, 983.63 387.64 C 987.62 386.91, 989.96 386.82, 993.34 386.52 C 996.73 386.22, 998.24 386.29, 1000.55 386.13 C 1002.87 385.98, 1004.02 386.06, 1004.91 385.75 C 1005.80 385.44, 1005.89 385.06, 1005.02 384.58 C 1004.16 384.09, 1002.99 383.56, 1000.60 383.33 C 998.21 383.10, 996.57 383.13, 993.07 383.44 C 989.57 383.74, 987.20 384.09, 983.11 384.86 C 979.02 385.62, 976.93 386.23, 972.63 387.27 C 968.33 388.30, 965.42 388.95, 961.61 390.02 C 957.80 391.09, 956.01 391.67, 953.59 392.62 C 951.16 393.57, 950.24 394.06, 949.51 394.78 C 948.77 395.51, 948.89 396.00, 949.92 396.23" style="stroke: black; fill: black;"/><path d="M 1079.80,425.10 C 1079.54 424.29, 1079.05 423.34, 1077.56 422.32 C 1076.07 421.31, 1074.94 420.50, 1072.35 420.02 C 1069.75 419.55, 1068.02 419.34, 1064.60 419.94 C 1061.19 420.53, 1059.20 421.20, 1055.25 423.00 C 1051.31 424.80, 1049.11 426.14, 1044.90 428.94 C 1040.68 431.74, 1038.21 433.50, 1034.16 437.01 C 1030.12 440.52, 1027.93 442.70, 1024.67 446.50 C 1021.42 450.30, 1019.95 452.44, 1017.90 456.03 C 1015.85 459.62, 1014.95 461.40, 1014.43 464.45 C 1013.90 467.51, 1014.15 469.00, 1015.26 471.32 C 1016.37 473.65, 1017.56 474.80, 1019.98 476.10 C 1022.40 477.39, 1023.99 477.76, 1027.34 477.80 C 1030.69 477.84, 1032.60 477.41, 1036.74 476.31 C 1040.87 475.22, 1043.37 474.47, 1048.03 472.32 C 1052.69 470.17, 1055.10 468.79, 1060.02 465.55 C 1064.93 462.31, 1067.61 460.35, 1072.61 456.12 C 1077.62 451.90, 1080.36 449.43, 1085.04 444.43 C 1089.72 439.42, 1091.93 436.54, 1096.00 431.11 C 1100.07 425.69, 1102.09 422.77, 1105.38 417.32 C 1108.68 411.88, 1110.05 408.99, 1112.47 403.89 C 1114.90 398.79, 1115.82 396.30, 1117.49 391.81 C 1119.17 387.32, 1119.81 385.12, 1120.85 381.45 C 1121.89 377.77, 1122.47 376.03, 1122.71 373.43 C 1122.95 370.82, 1122.75 369.46, 1122.05 368.40 C 1121.36 367.35, 1120.50 367.12, 1119.22 368.15 C 1117.94 369.19, 1117.24 370.44, 1115.67 373.57 C 1114.10 376.69, 1113.35 379.08, 1111.38 383.77 C 1109.40 388.46, 1108.08 391.44, 1105.78 397.02 C 1103.48 402.59, 1102.28 405.81, 1099.87 411.65 C 1097.45 417.49, 1096.01 420.64, 1093.70 426.22 C 1091.38 431.79, 1090.12 434.57, 1088.29 439.51 C 1086.47 444.46, 1085.76 446.87, 1084.59 450.94 C 1083.42 455.01, 1082.76 456.84, 1082.44 459.86 C 1082.13 462.88, 1082.62 464.19, 1083.02 466.06 C 1083.42 467.94, 1083.96 468.65, 1084.45 469.24 C 1084.94 469.83, 1085.28 469.68, 1085.46 468.99 C 1085.64 468.31, 1085.35 467.57, 1085.35 465.80 C 1085.35 464.04, 1085.16 463.03, 1085.47 460.18 C 1085.77 457.33, 1085.94 455.54, 1086.88 451.54 C 1087.83 447.54, 1088.49 445.12, 1090.20 440.20 C 1091.91 435.27, 1093.14 432.49, 1095.43 426.93 C 1097.71 421.37, 1099.15 418.20, 1101.61 412.38 C 1104.08 406.57, 1105.29 403.35, 1107.74 397.86 C 1110.20 392.37, 1111.67 389.47, 1113.90 384.92 C 1116.13 380.37, 1117.49 378.22, 1118.91 375.12 C 1120.33 372.02, 1120.65 370.69, 1121.00 369.41 C 1121.36 368.13, 1120.98 368.00, 1120.68 368.71 C 1120.38 369.42, 1119.97 370.55, 1119.50 372.97 C 1119.03 375.39, 1119.11 377.18, 1118.31 380.81 C 1117.51 384.43, 1117.00 386.64, 1115.49 391.10 C 1113.99 395.56, 1113.11 398.04, 1110.79 403.10 C 1108.47 408.17, 1107.13 411.04, 1103.91 416.44 C 1100.69 421.84, 1098.69 424.75, 1094.67 430.12 C 1090.65 435.49, 1088.45 438.34, 1083.81 443.27 C 1079.17 448.19, 1076.44 450.62, 1071.46 454.74 C 1066.48 458.86, 1063.80 460.78, 1058.92 463.86 C 1054.05 466.94, 1051.64 468.22, 1047.07 470.15 C 1042.50 472.08, 1040.00 472.67, 1036.06 473.52 C 1032.13 474.37, 1030.33 474.44, 1027.39 474.38 C 1024.46 474.32, 1023.33 474.07, 1021.40 473.22 C 1019.47 472.37, 1018.54 471.78, 1017.74 470.13 C 1016.93 468.48, 1016.89 467.55, 1017.37 464.98 C 1017.85 462.41, 1018.33 460.67, 1020.15 457.27 C 1021.96 453.87, 1023.34 451.70, 1026.44 448.00 C 1029.54 444.29, 1031.70 442.14, 1035.66 438.74 C 1039.62 435.34, 1042.09 433.62, 1046.24 431.01 C 1050.38 428.39, 1052.61 427.15, 1056.39 425.67 C 1060.16 424.18, 1062.07 423.90, 1065.12 423.60 C 1068.16 423.29, 1069.44 423.79, 1071.63 424.14 C 1073.81 424.50, 1074.60 424.92, 1076.04 425.37 C 1077.49 425.82, 1078.09 426.43, 1078.84 426.38 C 1079.59 426.32, 1080.05 425.91, 1079.80 425.10" style="stroke: black; fill: black;"/><path d="M 1141.70,421.14 C 1141.05 421.71, 1140.72 422.44, 1139.90 424.36 C 1139.08 426.28, 1138.69 427.68, 1137.60 430.75 C 1136.52 433.81, 1135.75 435.92, 1134.45 439.69 C 1133.16 443.46, 1132.40 445.79, 1131.14 449.60 C 1129.88 453.41, 1129.04 455.39, 1128.14 458.74 C 1127.23 462.10, 1126.74 463.77, 1126.61 466.36 C 1126.49 468.94, 1126.73 470.14, 1127.53 471.66 C 1128.32 473.18, 1129.05 473.70, 1130.60 473.97 C 1132.16 474.23, 1133.20 474.17, 1135.31 472.99 C 1137.41 471.80, 1138.58 470.61, 1141.14 468.05 C 1143.70 465.49, 1145.11 463.55, 1148.12 460.18 C 1151.13 456.81, 1152.90 454.75, 1156.17 451.20 C 1159.44 447.65, 1161.38 445.59, 1164.46 442.43 C 1167.54 439.26, 1169.22 437.62, 1171.58 435.40 C 1173.95 433.17, 1174.97 432.32, 1176.28 431.30 C 1177.58 430.29, 1177.87 430.07, 1178.11 430.33 C 1178.35 430.59, 1177.95 431.06, 1177.49 432.62 C 1177.03 434.18, 1176.46 435.45, 1175.79 438.11 C 1175.12 440.76, 1174.91 442.65, 1174.13 445.89 C 1173.36 449.14, 1172.67 451.06, 1171.90 454.33 C 1171.14 457.61, 1170.52 459.40, 1170.30 462.29 C 1170.08 465.17, 1170.23 466.62, 1170.81 468.76 C 1171.39 470.91, 1171.81 471.79, 1173.18 473.01 C 1174.54 474.24, 1175.56 474.72, 1177.65 474.89 C 1179.74 475.05, 1181.10 474.91, 1183.64 473.84 C 1186.17 472.77, 1187.47 471.74, 1190.33 469.53 C 1193.19 467.32, 1194.74 465.82, 1197.95 462.79 C 1201.16 459.77, 1202.95 457.89, 1206.38 454.40 C 1209.80 450.91, 1211.72 448.90, 1215.09 445.34 C 1218.46 441.77, 1220.32 439.77, 1223.25 436.58 C 1226.17 433.39, 1227.56 431.86, 1229.72 429.39 C 1231.88 426.92, 1232.85 425.91, 1234.05 424.23 C 1235.24 422.56, 1235.32 421.89, 1235.71 421.01 C 1236.10 420.14, 1236.01 420.16, 1235.98 419.85 C 1235.96 419.54, 1235.89 419.45, 1235.57 419.47 C 1235.24 419.49, 1235.14 419.38, 1234.38 419.95 C 1233.61 420.52, 1233.12 420.84, 1231.73 422.34 C 1230.33 423.83, 1229.49 424.91, 1227.41 427.42 C 1225.33 429.93, 1224.15 431.62, 1221.33 434.87 C 1218.52 438.12, 1216.68 440.13, 1213.33 443.68 C 1209.99 447.23, 1208.06 449.23, 1204.60 452.63 C 1201.14 456.03, 1199.30 457.86, 1196.04 460.67 C 1192.77 463.49, 1191.08 464.80, 1188.28 466.70 C 1185.47 468.60, 1184.14 469.17, 1182.01 470.17 C 1179.88 471.18, 1179.05 471.53, 1177.63 471.71 C 1176.21 471.90, 1175.65 471.83, 1174.90 471.12 C 1174.15 470.41, 1174.02 469.87, 1173.86 468.18 C 1173.71 466.49, 1173.80 465.26, 1174.12 462.67 C 1174.45 460.07, 1174.71 458.34, 1175.49 455.20 C 1176.27 452.05, 1177.03 450.16, 1178.01 446.95 C 1178.99 443.73, 1179.85 441.96, 1180.39 439.12 C 1180.93 436.29, 1181.00 434.77, 1180.71 432.78 C 1180.43 430.79, 1180.10 429.91, 1178.96 429.16 C 1177.82 428.42, 1176.92 428.28, 1175.02 429.07 C 1173.12 429.87, 1171.97 430.83, 1169.47 433.14 C 1166.98 435.44, 1165.59 437.35, 1162.55 440.61 C 1159.51 443.86, 1157.59 445.92, 1154.27 449.43 C 1150.96 452.94, 1149.11 454.97, 1145.97 458.16 C 1142.83 461.35, 1141.11 463.02, 1138.56 465.37 C 1136.02 467.73, 1134.82 468.63, 1133.25 469.93 C 1131.67 471.23, 1131.38 471.69, 1130.67 471.88 C 1129.97 472.06, 1129.85 471.91, 1129.71 470.86 C 1129.57 469.82, 1129.66 468.92, 1129.97 466.66 C 1130.28 464.40, 1130.45 462.78, 1131.27 459.57 C 1132.09 456.35, 1132.79 454.32, 1134.06 450.58 C 1135.33 446.84, 1136.17 444.56, 1137.63 440.86 C 1139.08 437.16, 1140.23 435.19, 1141.34 432.08 C 1142.45 428.97, 1142.83 427.44, 1143.19 425.32 C 1143.55 423.20, 1143.44 422.33, 1143.14 421.50 C 1142.84 420.66, 1142.35 420.57, 1141.70 421.14" style="stroke: black; fill: black;"/><path d="M 1306.96,436.14 C 1307.04 435.34, 1306.84 434.36, 1306.00 433.08 C 1305.15 431.81, 1304.46 430.94, 1302.73 429.76 C 1301.01 428.58, 1299.96 427.81, 1297.37 427.20 C 1294.79 426.60, 1293.15 426.37, 1289.82 426.73 C 1286.50 427.09, 1284.70 427.62, 1280.75 429.00 C 1276.80 430.38, 1274.46 431.32, 1270.09 433.63 C 1265.71 435.94, 1263.15 437.50, 1258.85 440.56 C 1254.55 443.62, 1252.18 445.58, 1248.57 448.92 C 1244.96 452.26, 1243.06 454.12, 1240.80 457.27 C 1238.53 460.42, 1237.73 461.93, 1237.26 464.68 C 1236.79 467.44, 1237.13 468.93, 1238.44 471.05 C 1239.75 473.16, 1240.98 474.23, 1243.80 475.26 C 1246.62 476.29, 1248.74 476.29, 1252.52 476.18 C 1256.31 476.08, 1258.46 475.75, 1262.73 474.73 C 1267.00 473.71, 1269.35 472.91, 1273.88 471.08 C 1278.41 469.25, 1280.90 468.02, 1285.39 465.59 C 1289.87 463.16, 1292.21 461.63, 1296.30 458.93 C 1300.40 456.23, 1302.50 454.69, 1305.88 452.08 C 1309.25 449.47, 1311.05 448.13, 1313.16 445.88 C 1315.27 443.63, 1315.99 442.28, 1316.42 440.83 C 1316.84 439.38, 1316.39 438.66, 1315.29 438.62 C 1314.19 438.58, 1312.88 439.00, 1310.90 440.64 C 1308.92 442.27, 1307.50 443.91, 1305.40 446.80 C 1303.30 449.69, 1302.26 451.80, 1300.39 455.09 C 1298.52 458.39, 1297.26 460.25, 1296.06 463.28 C 1294.86 466.30, 1294.43 468.72, 1294.39 470.21 C 1294.35 471.71, 1294.95 471.87, 1295.87 470.75 C 1296.78 469.64, 1297.46 467.41, 1298.97 464.65 C 1300.49 461.88, 1301.48 460.00, 1303.44 456.93 C 1305.40 453.87, 1306.68 452.02, 1308.77 449.33 C 1310.86 446.65, 1312.47 445.42, 1313.90 443.50 C 1315.32 441.57, 1315.72 440.44, 1315.89 439.69 C 1316.06 438.94, 1315.78 438.98, 1314.75 439.75 C 1313.73 440.52, 1312.88 441.49, 1310.78 443.55 C 1308.68 445.62, 1307.39 447.38, 1304.24 450.07 C 1301.09 452.75, 1299.00 454.29, 1295.01 456.99 C 1291.02 459.68, 1288.70 461.20, 1284.29 463.56 C 1279.89 465.92, 1277.41 467.11, 1272.98 468.79 C 1268.55 470.48, 1266.23 471.17, 1262.13 471.99 C 1258.03 472.81, 1255.93 472.91, 1252.48 472.89 C 1249.04 472.87, 1247.27 472.55, 1244.89 471.89 C 1242.52 471.23, 1241.59 470.94, 1240.61 469.61 C 1239.64 468.27, 1239.53 467.37, 1240.01 465.21 C 1240.48 463.06, 1240.94 461.73, 1242.98 458.82 C 1245.02 455.91, 1246.77 453.94, 1250.21 450.67 C 1253.66 447.40, 1256.00 445.43, 1260.21 442.47 C 1264.41 439.51, 1266.95 438.01, 1271.24 435.88 C 1275.53 433.75, 1277.88 432.92, 1281.65 431.82 C 1285.43 430.73, 1287.16 430.53, 1290.10 430.40 C 1293.05 430.28, 1294.30 430.64, 1296.38 431.20 C 1298.46 431.75, 1299.11 432.33, 1300.51 433.18 C 1301.91 434.03, 1302.35 434.68, 1303.37 435.46 C 1304.38 436.24, 1304.86 436.94, 1305.58 437.07 C 1306.30 437.21, 1306.88 436.93, 1306.96 436.14" style="stroke: black; fill: black;"/><path d="M 1350.01,445.80 C 1349.31 446.13, 1349.01 446.70, 1347.88 448.07 C 1346.75 449.43, 1345.91 450.38, 1344.38 452.61 C 1342.85 454.84, 1341.94 456.54, 1340.24 459.22 C 1338.53 461.89, 1337.47 463.44, 1335.85 465.99 C 1334.23 468.54, 1333.10 469.90, 1332.13 471.97 C 1331.15 474.04, 1330.92 475.28, 1330.98 476.35 C 1331.03 477.41, 1331.60 477.72, 1332.41 477.30 C 1333.21 476.89, 1333.92 476.17, 1334.99 474.27 C 1336.06 472.38, 1336.41 470.81, 1337.76 467.83 C 1339.10 464.85, 1339.79 462.78, 1341.71 459.38 C 1343.64 455.98, 1344.82 454.08, 1347.39 450.85 C 1349.97 447.62, 1351.50 445.99, 1354.59 443.23 C 1357.67 440.47, 1359.51 439.14, 1362.81 437.07 C 1366.11 435.00, 1367.83 434.11, 1371.07 432.88 C 1374.31 431.66, 1375.98 431.27, 1379.01 430.93 C 1382.04 430.60, 1383.54 430.91, 1386.22 431.21 C 1388.90 431.50, 1390.34 432.00, 1392.40 432.42 C 1394.46 432.84, 1395.14 433.00, 1396.51 433.28 C 1397.87 433.56, 1398.57 433.93, 1399.21 433.83 C 1399.86 433.73, 1400.08 433.36, 1399.73 432.77 C 1399.37 432.19, 1398.73 431.64, 1397.44 430.88 C 1396.15 430.13, 1395.45 429.67, 1393.28 429.00 C 1391.10 428.33, 1389.51 427.77, 1386.57 427.53 C 1383.63 427.29, 1381.89 427.27, 1378.58 427.80 C 1375.27 428.34, 1373.46 428.81, 1370.02 430.20 C 1366.57 431.60, 1364.79 432.57, 1361.35 434.78 C 1357.91 436.99, 1356.04 438.38, 1352.81 441.24 C 1349.59 444.10, 1348.00 445.79, 1345.23 449.08 C 1342.46 452.37, 1341.23 454.30, 1338.96 457.67 C 1336.68 461.04, 1335.44 462.93, 1333.86 465.93 C 1332.29 468.94, 1331.66 470.52, 1331.08 472.69 C 1330.51 474.86, 1330.68 475.87, 1330.99 476.78 C 1331.30 477.68, 1331.74 477.78, 1332.65 477.23 C 1333.56 476.67, 1334.20 475.80, 1335.53 473.99 C 1336.86 472.19, 1337.63 470.70, 1339.28 468.22 C 1340.93 465.73, 1341.96 464.18, 1343.78 461.57 C 1345.59 458.96, 1346.93 457.53, 1348.35 455.16 C 1349.78 452.80, 1350.30 451.49, 1350.90 449.75 C 1351.50 448.00, 1351.54 447.22, 1351.36 446.43 C 1351.18 445.64, 1350.71 445.48, 1350.01 445.80" style="stroke: black; fill: black;"/><path d="M 1462.36,448.00 C 1462.19 447.25, 1461.84 446.49, 1460.56 445.50 C 1459.28 444.51, 1458.32 443.68, 1455.96 443.05 C 1453.60 442.42, 1451.98 442.07, 1448.76 442.34 C 1445.53 442.61, 1443.69 443.11, 1439.84 444.38 C 1436.00 445.66, 1433.59 446.56, 1429.53 448.71 C 1425.46 450.86, 1423.25 452.36, 1419.52 455.12 C 1415.78 457.89, 1413.80 459.61, 1410.86 462.52 C 1407.91 465.44, 1406.47 466.94, 1404.80 469.70 C 1403.12 472.47, 1402.66 473.96, 1402.49 476.34 C 1402.32 478.72, 1402.65 479.93, 1403.94 481.62 C 1405.23 483.30, 1406.33 484.12, 1408.94 484.76 C 1411.54 485.40, 1413.27 485.37, 1416.96 484.81 C 1420.64 484.26, 1422.88 483.59, 1427.36 481.98 C 1431.83 480.36, 1434.36 479.21, 1439.33 476.74 C 1444.30 474.26, 1447.06 472.80, 1452.21 469.58 C 1457.37 466.37, 1460.28 464.51, 1465.12 460.67 C 1469.96 456.84, 1472.25 454.66, 1476.41 450.43 C 1480.56 446.21, 1482.41 443.91, 1485.89 439.54 C 1489.36 435.18, 1491.06 432.77, 1493.77 428.59 C 1496.48 424.40, 1497.54 422.30, 1499.42 418.61 C 1501.31 414.93, 1502.24 413.16, 1503.20 410.17 C 1504.16 407.18, 1504.51 405.48, 1504.23 403.67 C 1503.95 401.87, 1503.25 401.06, 1501.80 401.14 C 1500.34 401.22, 1499.02 401.77, 1496.96 404.06 C 1494.89 406.36, 1493.85 408.51, 1491.46 412.60 C 1489.07 416.70, 1487.60 419.53, 1485.01 424.54 C 1482.42 429.55, 1480.93 432.52, 1478.49 437.65 C 1476.05 442.78, 1474.72 445.47, 1472.80 450.17 C 1470.89 454.88, 1470.05 457.11, 1468.91 461.17 C 1467.76 465.23, 1467.30 467.14, 1467.07 470.46 C 1466.84 473.79, 1467.21 475.35, 1467.74 477.78 C 1468.27 480.21, 1468.92 481.16, 1469.74 482.62 C 1470.57 484.07, 1471.07 484.50, 1471.87 485.07 C 1472.66 485.65, 1473.26 485.57, 1473.71 485.49 C 1474.17 485.40, 1474.22 485.01, 1474.14 484.66 C 1474.07 484.30, 1473.69 484.36, 1473.34 483.70 C 1472.99 483.04, 1472.88 482.68, 1472.38 481.36 C 1471.89 480.04, 1471.34 479.24, 1470.86 477.09 C 1470.38 474.94, 1469.91 473.67, 1469.99 470.61 C 1470.06 467.54, 1470.28 465.71, 1471.24 461.79 C 1472.21 457.86, 1472.97 455.62, 1474.81 450.98 C 1476.64 446.34, 1477.96 443.64, 1480.42 438.58 C 1482.88 433.51, 1484.39 430.54, 1487.11 425.67 C 1489.83 420.79, 1491.47 418.04, 1494.01 414.18 C 1496.55 410.32, 1498.17 408.70, 1499.82 406.37 C 1501.48 404.05, 1501.84 403.11, 1502.28 402.55 C 1502.71 401.99, 1502.42 402.25, 1501.99 403.57 C 1501.57 404.89, 1501.12 406.36, 1500.16 409.16 C 1499.19 411.95, 1498.82 413.88, 1497.18 417.54 C 1495.54 421.20, 1494.53 423.28, 1491.97 427.45 C 1489.40 431.61, 1487.74 434.01, 1484.37 438.35 C 1480.99 442.69, 1479.17 444.97, 1475.09 449.14 C 1471.01 453.31, 1468.75 455.46, 1463.97 459.21 C 1459.19 462.97, 1456.30 464.81, 1451.18 467.91 C 1446.06 471.02, 1443.31 472.44, 1438.37 474.74 C 1433.44 477.05, 1430.88 478.09, 1426.51 479.44 C 1422.14 480.78, 1419.89 481.10, 1416.51 481.48 C 1413.13 481.87, 1411.73 481.68, 1409.61 481.38 C 1407.49 481.08, 1406.78 480.94, 1405.91 480.00 C 1405.04 479.06, 1404.93 478.39, 1405.25 476.66 C 1405.56 474.93, 1405.98 473.80, 1407.49 471.35 C 1409.00 468.91, 1410.09 467.27, 1412.81 464.45 C 1415.53 461.62, 1417.48 459.89, 1421.08 457.23 C 1424.67 454.57, 1426.85 453.12, 1430.78 451.15 C 1434.72 449.19, 1437.11 448.38, 1440.75 447.42 C 1444.39 446.46, 1446.12 446.40, 1448.97 446.35 C 1451.81 446.30, 1452.96 446.76, 1454.96 447.18 C 1456.95 447.60, 1457.65 448.06, 1458.94 448.47 C 1460.24 448.88, 1460.74 449.32, 1461.42 449.23 C 1462.11 449.14, 1462.53 448.75, 1462.36 448.00" style="stroke: black; fill: black;"/><path d="M 1567.01,446.50 C 1566.48 445.71, 1565.66 444.86, 1563.69 443.99 C 1561.73 443.12, 1560.26 442.49, 1557.17 442.15 C 1554.09 441.81, 1551.96 441.87, 1548.26 442.30 C 1544.56 442.73, 1542.44 443.22, 1538.65 444.30 C 1534.87 445.37, 1532.78 446.23, 1529.34 447.66 C 1525.91 449.08, 1524.06 449.71, 1521.49 451.40 C 1518.93 453.09, 1517.77 454.12, 1516.51 456.10 C 1515.25 458.08, 1514.99 459.27, 1515.19 461.31 C 1515.39 463.34, 1515.86 464.45, 1517.51 466.27 C 1519.16 468.09, 1520.57 468.96, 1523.44 470.42 C 1526.30 471.87, 1528.28 472.37, 1531.85 473.56 C 1535.41 474.75, 1537.63 475.24, 1541.27 476.35 C 1544.90 477.47, 1547.03 478.13, 1550.04 479.13 C 1553.05 480.13, 1554.43 480.65, 1556.30 481.37 C 1558.17 482.08, 1558.89 482.28, 1559.39 482.73 C 1559.88 483.19, 1559.79 483.24, 1558.78 483.64 C 1557.77 484.03, 1556.72 484.01, 1554.33 484.71 C 1551.95 485.40, 1550.35 486.14, 1546.87 487.12 C 1543.39 488.09, 1541.14 488.68, 1536.93 489.58 C 1532.73 490.48, 1530.14 490.93, 1525.84 491.61 C 1521.54 492.30, 1519.28 492.60, 1515.45 493.02 C 1511.62 493.43, 1509.67 493.44, 1506.68 493.69 C 1503.70 493.94, 1502.39 493.94, 1500.50 494.27 C 1498.61 494.60, 1497.88 494.91, 1497.25 495.32 C 1496.61 495.74, 1496.66 496.05, 1497.34 496.35 C 1498.02 496.65, 1498.71 496.67, 1500.63 496.81 C 1502.55 496.94, 1503.90 497.22, 1506.93 497.03 C 1509.96 496.84, 1511.94 496.39, 1515.80 495.85 C 1519.67 495.31, 1521.93 495.00, 1526.27 494.33 C 1530.61 493.66, 1533.21 493.25, 1537.50 492.51 C 1541.79 491.78, 1544.08 491.41, 1547.73 490.65 C 1551.38 489.89, 1553.19 489.72, 1555.73 488.69 C 1558.26 487.67, 1559.35 486.91, 1560.40 485.54 C 1561.46 484.16, 1561.55 483.24, 1561.02 481.83 C 1560.49 480.42, 1559.71 479.69, 1557.74 478.49 C 1555.77 477.29, 1554.26 476.87, 1551.15 475.81 C 1548.05 474.76, 1545.85 474.33, 1542.22 473.23 C 1538.59 472.12, 1536.40 471.56, 1533.00 470.29 C 1529.60 469.01, 1527.84 468.17, 1525.22 466.87 C 1522.59 465.57, 1521.37 464.97, 1519.88 463.79 C 1518.39 462.62, 1517.96 462.18, 1517.77 460.99 C 1517.57 459.80, 1517.78 459.16, 1518.91 457.84 C 1520.04 456.51, 1521.06 455.83, 1523.40 454.38 C 1525.73 452.93, 1527.37 451.99, 1530.59 450.59 C 1533.81 449.18, 1535.89 448.31, 1539.49 447.36 C 1543.09 446.41, 1545.13 446.04, 1548.57 445.84 C 1552.02 445.63, 1553.91 446.04, 1556.73 446.33 C 1559.55 446.63, 1560.75 446.99, 1562.68 447.32 C 1564.60 447.64, 1565.50 448.11, 1566.37 447.94 C 1567.23 447.78, 1567.55 447.29, 1567.01 446.50" style="stroke: black; fill: black;"/></svg>